HIERARCHY
ROOT Hips
{
	OFFSET 0.000000 0.000000 0.000000 
	CHANNELS 6 Xposition Yposition Zposition Zrotation Yrotation Xrotation
	JOINT LeftUpLeg
	{
		OFFSET 1.363060 -1.794630 0.839290 
		CHANNELS 3 Zrotation Yrotation Xrotation
		JOINT LeftLeg
		{
			OFFSET 2.448110 -6.726130 0.000000 
			CHANNELS 3 Zrotation Yrotation Xrotation
			JOINT LeftFoot
			{
				OFFSET 2.562200 -7.039590 0.000000 
				CHANNELS 3 Zrotation Yrotation Xrotation
				JOINT LeftToeBase
				{
					OFFSET 0.157640 -0.433110 2.322550 
					CHANNELS 3 Zrotation Yrotation Xrotation
					End Site
					{
						OFFSET 0.000000 0.000000 0.000000 
					}
				}
			}
		}
	}
	JOINT RightUpLeg
	{
		OFFSET -1.305520 -1.794630 0.839290 
		CHANNELS 3 Zrotation Yrotation Xrotation
		JOINT RightLeg
		{
			OFFSET -2.542530 -6.985550 0.000000 
			CHANNELS 3 Zrotation Yrotation Xrotation
			JOINT RightFoot
			{
				OFFSET -2.568260 -7.056230 0.000000 
				CHANNELS 3 Zrotation Yrotation Xrotation
				JOINT RightToeBase
				{
					OFFSET -0.164730 -0.452590 2.363150 
					CHANNELS 3 Zrotation Yrotation Xrotation
					End Site
					{
						OFFSET 0.000000 0.000000 0.000000 
					}
				}
			}
		}
	}
	JOINT Spine
	{
		OFFSET 0.028270 2.035590 -0.193380 
		CHANNELS 3 Zrotation Yrotation Xrotation
		JOINT Spine1
		{
			OFFSET 0.056720 2.048850 -0.042750 
			CHANNELS 3 Zrotation Yrotation Xrotation
			JOINT Neck1
			{
				OFFSET -0.054170 1.746240 0.172020 
				CHANNELS 3 Zrotation Yrotation Xrotation
				JOINT Head
				{
					OFFSET 0.104070 1.761360 -0.123970 
					CHANNELS 3 Zrotation Yrotation Xrotation
					End Site
					{
						OFFSET 0.000000 0.000000 0.000000 
					}
				}
			}
			JOINT LeftArm
			{
				OFFSET 3.362410 1.200890 -0.311210 
				CHANNELS 3 Zrotation Yrotation Xrotation
				JOINT LeftForeArm
				{
					OFFSET 4.983000 -0.000000 -0.000000 
					CHANNELS 3 Zrotation Yrotation Xrotation
					JOINT LeftHand
					{
						OFFSET 3.483560 -0.000000 -0.000000 
						CHANNELS 3 Zrotation Yrotation Xrotation
						JOINT LeftHandIndex1
						{
							OFFSET 0.715260 -0.000000 -0.000000 
							CHANNELS 3 Zrotation Yrotation Xrotation
							End Site
							{
								OFFSET 0.000000 0.000000 0.000000 
							}
						}
					}
				}
			}
			JOINT RightArm
			{
				OFFSET -3.136600 1.374050 -0.404650 
				CHANNELS 3 Zrotation Yrotation Xrotation
				JOINT RightForeArm
				{
					OFFSET -5.241900 -0.000000 -0.000000 
					CHANNELS 3 Zrotation Yrotation Xrotation
					JOINT RightHand
					{
						OFFSET -3.444170 -0.000000 -0.000000 
						CHANNELS 3 Zrotation Yrotation Xrotation
						JOINT RightHandIndex1
						{
							OFFSET -0.622530 -0.000000 -0.000000 
							CHANNELS 3 Zrotation Yrotation Xrotation
							End Site
							{
								OFFSET 0.000000 0.000000 0.000000 
							}
						}
					}
				}
			}
		}
	}
}
MOTION
Frames: 10
Frame Time: 0.041667
11.231370 17.935853 -45.511958 -1.054516 -1.892218 0.227714 -20.641116 -23.529352 -1.159185 -2.312162 8.490796 24.580189 -4.615483 16.318966 -12.817987 0.195200 -2.845400 -7.848500 26.637691 21.822865 2.075671 2.010562 -7.711629 24.671284 6.212240 -25.422617 -19.691364 -0.059600 1.575100 -4.332800 1.158597 0.424549 1.648985 -4.238055 -0.016533 -12.842917 12.792182 -10.018728 22.636863 2.155200 -3.801900 7.728300 -90.058851 9.441031 26.483303 24.804457 -24.572120 -6.636998 1.668967 0.763564 9.962797 -7.125000 0.000000 0.000000 87.193628 -7.453383 52.669405 -21.304902 24.203739 -5.988171 0.999596 -0.076977 11.243051 7.125000 0.000000 0.000000 
11.233236 17.934570 -45.512074 -1.011670 -1.926959 0.229406 -20.684903 -23.511179 -1.155926 -2.314278 8.507656 24.614999 -4.722857 16.637564 -12.987537 0.287000 -3.445200 -9.520900 26.645135 21.974888 2.171833 2.020679 -7.698134 24.624177 6.348819 -25.828823 -19.745953 -0.077800 1.799100 -4.950800 1.027604 0.488904 1.529193 -4.243193 0.013066 -12.964453 12.727079 -10.014931 22.717233 2.116300 -3.790500 7.753300 -90.143401 9.548272 26.167727 24.786909 -24.541935 -6.611919 1.649091 0.775828 10.222850 -7.125000 0.000000 0.000000 87.360379 -7.636965 52.190505 -21.359696 24.251341 -5.978818 1.004039 -0.081729 11.459580 7.125000 0.000000 0.000000 
11.237202 17.933403 -45.505659 -1.080462 -2.026685 0.253596 -20.656115 -23.439218 -1.181978 -2.306456 8.528211 24.662803 -4.808659 16.866018 -12.994832 0.361200 -3.861100 -10.686100 26.695191 21.970728 2.206642 2.031382 -7.679237 24.564678 6.339969 -25.785235 -19.664819 -0.079900 1.823900 -5.019200 1.098171 0.590979 1.221667 -4.290874 0.049666 -13.127422 12.665414 -9.976011 22.848980 2.091400 -3.763400 7.776300 -90.547297 10.225194 25.604170 25.090040 -24.889468 -6.761427 1.634133 0.768906 10.723754 -7.125000 0.000000 0.000000 87.458070 -7.934819 51.807240 -21.385351 24.283245 -5.992723 0.999352 -0.080546 11.738365 7.125000 0.000000 0.000000 
11.239185 17.930954 -45.503793 -1.124876 -2.008477 0.133829 -20.650676 -23.386250 -1.148557 -2.291634 8.534724 24.711415 -4.810183 16.858779 -12.949418 0.379100 -3.954500 -10.948800 26.725230 21.892048 2.281576 2.034930 -7.656728 24.534215 6.329341 -25.749105 -19.654030 -0.086800 1.900100 -5.229700 1.371809 0.597910 1.968996 -4.203861 0.077847 -12.834443 12.718446 -9.831987 22.472314 2.107800 -3.709200 7.679800 -90.202222 9.550292 26.111272 24.876564 -24.631774 -6.649543 1.625760 0.791427 10.184470 -7.125000 0.000000 0.000000 87.273524 -7.645135 51.553917 -21.390383 24.307231 -6.026737 0.993659 -0.070012 11.733868 7.125000 0.000000 0.000000 
11.244434 17.937486 -45.497378 -1.153142 -2.150838 0.352227 -20.569898 -23.458596 -1.308317 -2.297095 8.545337 24.715276 -4.821778 16.905824 -13.074706 0.367800 -3.895800 -10.783700 26.640060 21.960847 2.073979 2.047038 -7.653355 24.466221 6.318390 -25.662806 -19.495532 -0.098600 2.025300 -5.575600 1.299153 0.685007 1.819586 -4.273696 0.109115 -12.686353 12.892699 -9.704063 22.302532 2.162600 -3.641500 7.615300 -90.062960 9.566633 26.556684 24.903403 -24.608363 -6.619308 1.579431 0.804473 10.528381 -7.125000 0.000000 0.000000 87.343235 -7.689990 51.170231 -21.453018 24.378379 -6.059150 0.990200 -0.059073 11.468696 7.125000 0.000000 0.000000 
11.249100 17.932470 -45.491429 -1.242857 -2.296863 0.256357 -20.583951 -23.471095 -1.195358 -2.300047 8.543837 24.731020 -4.905957 17.154914 -13.240169 0.420000 -4.159400 -11.525600 26.750414 22.071043 2.235989 2.051495 -7.636353 24.437088 6.290963 -25.586719 -19.469949 -0.103700 2.076500 -5.717000 1.574672 0.780568 1.955276 -4.279734 0.157553 -12.684742 12.997345 -9.629046 22.161624 2.214700 -3.613200 7.558700 -90.221916 9.864826 27.624567 25.164307 -24.767363 -6.635608 1.428923 0.837703 11.890653 -7.125000 0.000000 0.000000 87.259764 -7.737470 50.889798 -21.559537 24.482545 -6.073645 0.996853 -0.063271 11.117816 7.125000 0.000000 0.000000 
11.254582 17.932703 -45.486063 -1.309056 -2.272808 0.373984 -20.536524 -23.561746 -1.261391 -2.305185 8.539710 24.704918 -4.984095 17.352361 -13.230059 0.470300 -4.398500 -12.200500 26.757163 22.199694 2.177605 2.062729 -7.635295 24.397702 6.325636 -25.698685 -19.503873 -0.097800 2.017000 -5.552800 1.886563 0.808571 1.968374 -4.237895 0.176302 -12.556693 12.936227 -9.608886 22.051904 2.205400 -3.620100 7.519000 -90.345390 9.877643 27.607898 25.215733 -24.818746 -6.661890 1.427527 0.835457 11.933132 -7.125000 0.000000 0.000000 87.120780 -7.766025 50.721534 -21.594122 24.500851 -6.066259 1.003352 -0.073268 11.040215 7.125000 0.000000 0.000000 
11.259364 17.938652 -45.483964 -1.339705 -2.315085 0.508237 -20.451442 -23.571274 -1.366819 -2.306939 8.535980 24.689371 -4.894601 17.104578 -13.208157 0.378900 -3.953000 -10.944600 26.738490 22.291123 2.068134 2.069622 -7.640352 24.374286 6.367963 -25.821190 -19.509852 -0.092800 1.964200 -5.406800 1.788209 0.838998 2.001271 -4.304721 0.181497 -12.455190 12.951824 -9.598474 22.002967 2.193700 -3.609100 7.524100 -90.264617 9.860620 27.534249 25.210669 -24.820625 -6.669205 1.425441 0.847436 12.024987 -7.125000 0.000000 0.000000 87.187830 -7.708511 50.509520 -21.577928 24.476914 -6.058623 1.003890 -0.070141 11.030038 7.125000 0.000000 0.000000 
11.262397 17.939352 -45.488629 -1.351205 -2.236783 0.408381 -20.469448 -23.575040 -1.294251 -2.302473 8.530428 24.695958 -4.782364 16.805187 -13.182361 0.305200 -3.551800 -9.819000 26.774609 22.279115 2.167137 2.069892 -7.634397 24.384084 6.375390 -25.878013 -19.623372 -0.090700 1.942700 -5.347300 1.867889 0.761742 2.111111 -4.287883 0.143849 -12.600349 12.875924 -9.483511 22.166352 2.176200 -3.544800 7.596800 -90.311946 9.812128 27.139154 25.130699 -24.753460 -6.641171 1.443740 0.847384 11.916870 -7.125000 0.000000 0.000000 87.114052 -7.665090 50.534526 -21.573260 24.485073 -6.067881 1.000138 -0.065499 10.841829 7.125000 0.000000 0.000000 
11.267646 17.939702 -45.474982 -1.335329 -2.220478 0.448489 -20.533820 -23.746984 -1.225949 -2.305202 8.532848 24.706648 -4.804639 16.895221 -13.329229 0.310000 -3.579700 -9.897200 26.756798 22.382602 2.210474 2.075688 -7.625718 24.365775 6.370050 -25.883402 -19.710569 -0.092000 1.956700 -5.386100 1.908409 0.705920 2.274685 -4.287747 0.122145 -12.438108 13.103748 -9.297624 21.956444 2.268900 -3.455000 7.529600 -90.350221 9.781405 27.053674 25.129319 -24.725155 -6.612497 1.434696 0.841778 11.925961 -7.125000 0.000000 0.000000 87.011654 -7.618692 50.660926 -21.588938 24.500382 -6.083866 0.999637 -0.066017 10.711446 7.125000 0.000000 0.000000 
